<svg xmlns="http://www.w3.org/2000/svg" xmlns:xlink="http://www.w3.org/1999/xlink" width="50" zoomAndPan="magnify" viewBox="0 0 37.5 37.499999" height="50" preserveAspectRatio="xMidYMid meet" version="1.0"><defs><clipPath id="93008fd119"><path d="M 3.699219 0 L 31 0 L 31 37 L 3.699219 37 Z M 3.699219 0 " clip-rule="nonzero"/></clipPath></defs><g clip-path="url(#93008fd119)"><path fill="#f1473a" d="M 17.617188 36.488281 C 13.84375 36.488281 4.523438 35.902344 3.699219 25.203125 C 3.699219 25.203125 6.113281 29.464844 6.117188 28.964844 C 6.128906 27.335938 3.699219 21.378906 9.773438 17.324219 C 17.203125 12.359375 14.960938 6.269531 13.191406 6.152344 C 13.191406 6.152344 17.949219 5.671875 18.382812 11.960938 C 18.617188 15.382812 21.507812 5.503906 19.796875 0.0351562 C 19.796875 0.0351562 28.480469 4.621094 27.402344 15.910156 C 27.402344 15.910156 28.746094 13.355469 31 14.722656 C 31 14.722656 29.585938 15.207031 30.058594 18.96875 C 30.53125 22.730469 32.59375 36.488281 17.617188 36.488281 " fill-opacity="1" fill-rule="nonzero"/></g><path fill="#f79326" d="M 16.496094 36.101562 C 14.058594 35.988281 9.417969 35.453125 9.417969 29.398438 C 9.417969 23.339844 15.492188 22.519531 15.492188 16.933594 C 15.492188 16.933594 18.382812 17.933594 18.085938 20.695312 C 18.085938 20.695312 23.75 17.167969 23.277344 12.992188 C 23.277344 12.992188 35.523438 36.96875 16.496094 36.101562 " fill-opacity="1" fill-rule="nonzero"/><path fill="#f79326" d="M 16.496094 36.101562 C 14.058594 35.988281 9.417969 35.453125 9.417969 29.398438 C 9.417969 23.339844 15.492188 22.519531 15.492188 16.933594 C 15.492188 16.933594 18.382812 17.933594 18.085938 20.695312 C 18.085938 20.695312 23.75 17.167969 23.277344 12.992188 C 23.277344 12.992188 35.523438 36.96875 16.496094 36.101562 " fill-opacity="1" fill-rule="nonzero"/><path fill="#fff533" d="M 17.675781 25.667969 C 17.675781 25.667969 19.148438 29.980469 16.730469 29.980469 C 15.050781 29.980469 15.257812 28.15625 15.257812 28.15625 C 15.257812 28.15625 10.570312 35.742188 17.675781 35.742188 C 19.113281 35.742188 21.625 35.445312 21.625 31.566406 C 21.625 27.6875 19.445312 26.121094 17.675781 25.667969 " fill-opacity="1" fill-rule="nonzero"/></svg>